<svg xmlns="http://www.w3.org/2000/svg" width="256" height="256" viewBox="0 0 256 256"><path fill="#211815" d="M0 0h256v256H0z"/><path fill="#31C5F4" d="M228.3 256H27.7C12.4 256 0 243.6 0 228.3V27.7C0 12.4 12.4 0 27.7 0h200.6C243.6 0 256 12.4 256 27.7v200.6c0 15.3-12.4 27.7-27.7 27.7ZM27.7 10C17.9 10 10 17.9 10 27.7v200.6C10 238.1 17.9 246 27.7 246h200.6c9.8 0 17.7-7.9 17.7-17.7V27.7c0-9.8-7.9-17.7-17.7-17.7Z"/><path fill="#31C5F4" d="M96.7 82h24.8c13.3 0 22.8 5.3 22.8 17.2 0 7.8-4.4 13.5-12.7 15.8 9.3 1.9 16 7.9 16 17.4 0 12.4-9.9 19.3-25.5 19.3H96.7Zm10.8 10v21.5h14.5c9.2 0 13.8-2.9 13.8-10.4 0-7.8-4.2-11.1-13.6-11.1Zm0 31.5v22.4h15.9c9.3 0 15.1-3.6 15.1-11.3s-5.6-11.1-15.1-11.1Z"/><path fill="#31C5F4" d="M157.9 87.2c5.9-4.2 12.1-6.1 18.6-6.1 15.9 0 26.5 12 26.5 29.8v40.8h-10.8v-41c0-13.2-6.5-20.9-17.3-20.9-7.3 0-12.6 3.8-15.6 9.4l-.4 1.2v51.3h-10.8V82h10.8Z"/></svg>