<svg enable-background="new 0 0 512 512" height="512" viewBox="0 0 512 512" width="512" xmlns="http://www.w3.org/2000/svg"><g id="_x32_3_Chatbot"><g><g><path d="m446.09 158.573c-1.945.003-3.818-1.071-4.752-2.926-35.445-70.523-106.468-114.33-185.357-114.33s-149.917 43.81-185.367 114.33c-1.318 2.617-4.498 3.678-7.133 2.361-2.62-1.318-3.678-4.511-2.361-7.133 37.271-74.132 111.937-120.183 194.861-120.183s157.59 46.051 194.85 120.182c1.318 2.623.259 5.816-2.361 7.133-.767.385-1.581.566-2.38.566z" fill="#cce0f1"/></g><g><path d="m249.242 466.504c-.057 0-.114 0-.171-.003-111.822-3.484-204.37-93.68-210.695-205.335-.166-2.929 2.07-5.44 5.001-5.606 2.916-.122 5.432 2.07 5.603 5.004 6.018 106.208 94.053 192.002 200.422 195.317 2.931.091 5.235 2.542 5.141 5.476-.087 2.877-2.447 5.147-5.301 5.147z" fill="#cce0f1"/></g><circle cx="255.979" cy="248.65" fill="#cce0f1" r="179.692"/><path d="m397.746 238.109c0 35.423-28.767 64.113-64.189 64.113h-155.156c-35.423 0-64.189-28.69-64.189-64.113 0-17.749 7.192-33.816 18.821-45.369 11.629-11.629 27.619-18.82 45.368-18.82h155.156c35.422 0 64.189 28.69 64.189 64.189z" fill="#41b3e7"/><circle cx="183.041" cy="238.071" fill="#36474f" r="29.532"/><circle cx="328.917" cy="238.071" fill="#36474f" r="29.532"/><path d="m294.738 344.471c-2.903 18.829-19.144 33.188-38.759 33.188s-35.855-14.359-38.759-33.188c-.471-3.14 2.04-6.042 5.257-6.042h67.004c3.217 0 5.727 2.902 5.257 6.042z" fill="#d81a60"/><path d="m505.688 208.552c0 30.281-24.438 54.93-54.666 55.303h-.637c-5.313 0-10.412-.744-15.247-2.178.425-4.303.531-8.66.531-13.016 0-29.909-7.278-58.119-20.293-82.928 4.09-3.4 8.712-6.109 13.653-8.181 6.588-2.763 13.76-4.303 21.356-4.303 30.493-.001 55.303 24.756 55.303 55.303z" fill="#cce0f1"/><path d="m76.278 248.661c0 4.356.159 8.713.531 13.016-4.834 1.434-9.934 2.178-15.247 2.178h-.637c-30.281-.372-54.612-25.022-54.612-55.303 0-30.547 24.703-55.304 55.25-55.304 7.544 0 14.769 1.541 21.356 4.303 4.994 2.072 9.562 4.781 13.653 8.181-13.016 24.81-20.294 53.019-20.294 82.929z" fill="#cce0f1"/><path d="m96.572 165.733c-13.016 24.809-20.294 53.019-20.294 82.928 0 4.356.159 8.713.531 13.016-4.834 1.434-9.934 2.178-15.247 2.178h-.637c-.372-4.993-.584-10.093-.584-15.194 0-32.885 8.128-63.91 22.578-91.11 4.993 2.072 9.562 4.782 13.653 8.182z" opacity=".1"/><path d="m451.606 248.661c0 5.1-.212 10.2-.584 15.194h-.637c-5.313 0-10.412-.744-15.247-2.178.425-4.303.531-8.66.531-13.016 0-29.909-7.278-58.119-20.293-82.928 4.09-3.4 8.712-6.109 13.653-8.181 14.449 27.199 22.577 58.224 22.577 91.109z" opacity=".1"/><path d="m307.979 461.326c0 11.024-13.15 19.982-29.342 19.982-16.25 0-29.399-8.958-29.399-19.982 0-11.083 13.15-20.04 29.399-20.04 16.192 0 29.342 8.957 29.342 20.04z" fill="#3eb655"/></g></g></svg>